<svg width="10" height="17" viewBox="0 0 10 17" fill="none" xmlns="http://www.w3.org/2000/svg">
<path d="M0 8.5C0 8.82655 0.127827 9.10508 0.393314 9.3548L8.06293 16.6831C8.26942 16.8943 8.54474 17 8.85939 17C9.49852 17 10 16.5198 10 15.8859C10 15.5785 9.87217 15.3 9.65585 15.0887L2.74336 8.5L9.65585 1.9113C9.87217 1.6904 10 1.41186 10 1.10452C10 0.480226 9.49852 0 8.85939 0C8.54474 0 8.26942 0.10565 8.06293 0.316949L0.393314 7.6452C0.127827 7.89492 0.00983284 8.17345 0 8.5Z" fill="white"/>
</svg>
